<svg version="1.1" id="Layer_1" xmlns="http://www.w3.org/2000/svg" xmlns:xlink="http://www.w3.org/1999/xlink" x="0px" y="0px"
	 width="100%" viewBox="0 0 116 118" enable-background="new 0 0 116 118" xml:space="preserve">
<path fill="#031019" opacity="1.000000" stroke="none" 
	d="
M76.000000,119.000000 
	C50.666668,119.000000 25.833334,119.000000 1.000000,119.000000 
	C1.000000,79.666664 1.000000,40.333332 1.000000,1.000000 
	C39.666668,1.000000 78.333336,1.000000 117.000000,1.000000 
	C117.000000,40.333332 117.000000,79.666664 117.000000,119.000000 
	C103.500000,119.000000 90.000000,119.000000 76.000000,119.000000 
M93.128670,86.075386 
	C93.128670,86.075386 93.188606,86.092216 93.543037,85.915329 
	C93.543037,85.915329 93.918243,85.832603 93.918243,85.832603 
	C93.918243,85.832603 94.301834,85.852943 95.009315,86.385849 
	C97.884453,86.385849 100.759590,86.385849 104.866974,86.385849 
	C102.645592,84.396011 101.636757,83.492325 99.690376,81.748817 
	C103.311562,80.943924 105.976532,80.351570 108.641510,79.759216 
	C108.590332,79.397156 108.539154,79.035103 108.487968,78.673042 
	C106.359169,78.083511 104.230370,77.493980 101.864212,76.571373 
	C101.864212,76.571373 101.563606,76.294022 101.537979,75.398895 
	C101.421677,74.815666 101.305374,74.232445 101.489464,72.918770 
	C103.187721,67.164307 104.885971,61.409847 106.368011,56.388023 
	C105.228043,54.842522 103.595901,53.079346 102.511642,51.026760 
	C101.530060,49.168549 101.146263,46.994556 101.431046,44.943256 
	C103.564400,44.736149 105.697754,44.529045 107.831108,44.321941 
	C107.742905,43.566105 107.654694,42.810272 107.566490,42.054440 
	C104.711151,42.335907 101.855820,42.617374 98.201096,42.894672 
	C97.137779,42.842556 96.074471,42.790440 95.170547,42.112434 
	C95.869339,39.714756 96.568123,37.317081 96.927139,34.225464 
	C95.158920,33.953308 93.390701,33.681152 91.194023,33.272141 
	C90.913948,33.162579 90.645782,33.029087 90.414612,32.072193 
	C93.849609,31.416288 97.284599,30.760384 100.719597,30.104479 
	C100.704552,29.760397 100.689514,29.416313 100.674469,29.072231 
	C94.456268,29.072231 88.238068,29.072231 81.358543,29.002281 
	C80.922638,28.923216 80.486732,28.844152 79.968697,28.086262 
	C77.467468,24.357975 73.819160,23.971130 68.935577,24.559298 
	C65.669876,24.617786 62.404171,24.676275 58.479965,24.420349 
	C53.774170,25.174561 49.003807,25.671124 44.398270,26.825377 
	C42.826447,27.219313 41.465824,29.116131 40.375893,30.596598 
	C39.159874,32.248333 38.693317,34.534492 37.297829,35.950542 
	C35.546764,37.727409 33.183311,38.900791 30.454044,40.304642 
	C29.827482,40.376945 29.200920,40.449245 27.801130,40.277771 
	C26.471577,41.738045 25.142021,43.198318 23.338434,45.179226 
	C22.186581,45.354328 20.167818,45.661217 18.149055,45.968105 
	C18.143267,46.375568 18.137478,46.783035 18.131687,47.190502 
	C20.628084,47.407612 23.124483,47.624722 25.549932,47.835663 
	C26.154009,50.340778 26.706524,52.632069 26.434893,55.111259 
	C25.651779,58.108986 24.713663,61.079739 24.184275,64.121620 
	C24.034275,64.983521 25.077080,66.052994 25.739304,67.881248 
	C26.936169,72.072113 28.133032,76.262970 29.329897,80.453835 
	C29.893188,81.282242 29.729658,82.461563 29.176853,83.415230 
	C28.734287,84.178703 27.818718,84.668007 26.862061,85.496330 
	C27.721176,85.640160 28.043818,85.729919 28.369629,85.743469 
	C35.710293,86.048729 35.664631,86.069565 38.910469,92.692146 
	C39.178055,93.238106 40.639416,93.198990 42.069798,93.639687 
	C42.441105,93.686806 42.812408,93.733925 43.731339,94.244560 
	C49.190636,94.941666 54.649933,95.638779 60.878971,96.575989 
	C63.531754,96.636009 66.184532,96.696022 69.532433,96.852386 
	C69.992188,96.780258 70.451942,96.708130 71.527679,96.937935 
	C72.152275,96.730736 72.776878,96.523544 73.904442,96.390266 
	C74.230980,96.310928 74.557526,96.231590 75.503014,96.438416 
	C79.678436,94.282761 83.853859,92.127098 88.583153,89.822174 
	C89.077888,89.253494 89.572624,88.684814 90.613358,87.907516 
	C91.121277,87.357933 91.629196,86.808350 92.652962,86.380310 
	C92.808121,86.295837 92.963272,86.211365 93.128670,86.075386 
z"/>
<path fill="#EFECF4" opacity="1.000000" stroke="none" 
	d="
M90.389534,32.871670 
	C90.645782,33.029087 90.913948,33.162579 91.422241,33.604813 
	C91.778748,34.264690 91.907036,34.591900 92.056023,35.228268 
	C92.397591,36.040932 92.718452,36.544437 93.091446,37.358826 
	C92.757492,38.764801 92.371422,39.859898 91.938858,40.669655 
	C91.314384,40.134369 90.736412,39.884426 90.158440,39.634487 
	C90.042397,39.906216 89.926346,40.177948 89.810303,40.449677 
	C90.525368,40.628613 91.240440,40.807549 91.929543,41.332737 
	C92.912827,42.456970 93.922081,43.234955 95.235199,44.212029 
	C96.701782,48.591648 97.864502,52.772179 98.624908,56.972618 
	C97.417656,57.031696 96.612701,57.070866 95.466011,56.971756 
	C93.744217,53.708382 92.601959,50.443165 90.879433,47.519875 
	C90.070702,46.147385 88.144295,45.433472 86.424973,44.365112 
	C85.723526,44.251400 85.321510,44.193691 84.756332,43.852184 
	C84.376816,42.536072 84.239777,41.479084 83.927971,40.476448 
	C83.227211,38.223190 86.916992,33.752514 80.445404,34.163872 
	C79.374916,34.051899 78.661087,33.979584 77.725723,33.644753 
	C74.038483,32.473068 70.572777,31.563898 66.670532,30.593307 
	C64.481110,30.592216 62.728230,30.652546 60.706692,30.528465 
	C56.640800,31.304562 51.983456,30.827662 50.535095,36.192406 
	C49.957718,36.331165 49.625397,36.400627 48.922054,36.363071 
	C43.567196,38.162552 38.032021,39.132496 34.714039,44.423027 
	C34.282303,43.253094 34.083530,41.924667 34.095367,40.345306 
	C38.518421,36.891857 43.514393,34.486916 45.221256,28.773390 
	C45.405300,28.157312 47.182037,27.966995 48.245884,27.672901 
	C51.870491,26.670897 55.506695,25.710833 59.138470,24.734762 
	C62.404171,24.676275 65.669876,24.617786 69.705093,24.801056 
	C73.666679,26.283571 76.858749,27.524330 80.050827,28.765087 
	C80.486732,28.844152 80.922638,28.923216 81.907120,29.297283 
	C85.100311,30.685415 87.744926,31.778543 90.389534,32.871670 
M90.510979,42.444057 
	C90.510979,42.444057 90.549461,42.519169 90.510979,42.444057 
z"/>
<path fill="#E8F7F8" opacity="1.000000" stroke="none" 
	d="
M33.884762,40.596241 
	C34.083530,41.924667 34.282303,43.253094 35.010845,44.427879 
	C36.075752,44.483513 36.610882,44.692783 37.086838,45.254349 
	C36.634445,46.709820 36.241222,47.812992 35.657047,49.097801 
	C35.329819,49.599102 35.193542,49.918758 35.062073,50.396568 
	C35.066875,50.554722 35.064293,50.871162 34.798363,51.139267 
	C34.362026,52.649841 34.191620,53.892315 34.021202,55.427429 
	C34.029404,56.109825 34.037613,56.499584 33.776543,57.179153 
	C33.515354,59.043839 33.523441,60.618706 33.311012,62.453323 
	C32.879074,63.728905 32.667648,64.744736 32.395317,66.130371 
	C32.575336,67.094017 32.818260,67.687065 33.056870,68.281837 
	C35.123917,73.434418 37.190189,78.587303 39.038551,83.960960 
	C38.674969,84.329063 38.529537,84.476295 37.999962,84.536934 
	C36.035202,84.228027 34.454578,84.005722 33.354942,83.851067 
	C31.498234,78.169312 29.913240,73.090141 28.104530,68.091934 
	C27.893263,67.508125 26.446718,67.371315 25.572844,67.027275 
	C25.077080,66.052994 24.034275,64.983521 24.184275,64.121620 
	C24.713663,61.079739 25.651779,58.108986 27.170570,54.955017 
	C28.806915,51.583267 29.707584,48.367756 30.347876,46.081829 
	C29.684128,44.000862 29.129244,42.261204 28.574360,40.521545 
	C29.200920,40.449245 29.827482,40.376945 30.988489,40.519089 
	C32.310211,40.687771 33.097485,40.642006 33.884762,40.596241 
z"/>
<path fill="#E8F7F8" opacity="1.000000" stroke="none" 
	d="
M70.911697,96.636009 
	C70.451942,96.708130 69.992188,96.780258 68.898422,96.558723 
	C65.599205,96.093163 62.934002,95.921272 59.905025,95.657951 
	C54.088737,94.971367 48.636227,94.376205 43.183716,93.781044 
	C42.812408,93.733925 42.441105,93.686806 41.826416,93.253021 
	C41.488811,91.558113 41.709171,90.116203 41.223927,88.974098 
	C40.557251,87.404976 39.356190,86.062897 38.384102,84.623535 
	C38.529537,84.476295 38.674969,84.329063 39.362251,84.001587 
	C40.543201,83.924561 41.182301,84.027763 41.840355,84.141922 
	C41.859314,84.152885 41.898029,84.173355 41.972248,84.533119 
	C46.707150,86.619843 51.367832,88.346794 56.140167,90.197174 
	C56.569027,90.292397 56.886223,90.264191 57.490810,90.275620 
	C58.151100,90.238998 58.524002,90.162743 59.326508,90.095566 
	C60.879646,90.313309 62.003185,90.521996 63.390266,90.906425 
	C65.029526,90.872917 66.405235,90.663666 68.166016,90.313904 
	C69.092995,90.120369 69.634911,90.067352 70.387497,90.201546 
	C73.660439,88.885048 76.722717,87.381348 80.120255,85.687531 
	C81.462967,85.295471 82.470428,85.093521 83.982979,84.949745 
	C84.822685,84.953987 85.157318,84.900070 85.702171,85.055832 
	C85.935600,86.438919 85.958794,87.612320 85.645309,88.968094 
	C81.776939,90.250763 78.245255,91.351059 73.951904,92.688652 
	C75.404732,93.553169 76.191185,94.021149 77.010147,94.508484 
	C76.163139,95.163345 75.523598,95.657806 74.884064,96.152260 
	C74.557526,96.231590 74.230980,96.310928 73.338333,96.201675 
	C72.152054,96.220726 71.531876,96.428368 70.911697,96.636009 
z"/>
<path fill="#D962BC" opacity="1.000000" stroke="none" 
	d="
M99.027214,56.952705 
	C97.864502,52.772179 96.701782,48.591648 95.312866,43.896851 
	C95.061501,43.167831 95.036324,42.953079 95.011154,42.738323 
	C96.074471,42.790440 97.137779,42.842556 98.681000,43.146591 
	C99.606903,43.918941 100.052895,44.439373 100.498886,44.959805 
	C101.146263,46.994556 101.530060,49.168549 102.511642,51.026760 
	C103.595901,53.079346 105.228043,54.842522 106.368011,56.388023 
	C104.885971,61.409847 103.187721,67.164307 101.124222,73.434952 
	C101.027199,74.732094 101.295403,75.513062 101.563606,76.294022 
	C101.563606,76.294022 101.864212,76.571373 101.850441,77.093575 
	C100.522789,78.209343 99.208908,78.802917 97.902473,79.078621 
	C97.895393,78.551460 97.880867,78.342171 97.959183,77.770157 
	C98.071274,75.684250 97.814079,73.902824 98.162560,72.249031 
	C99.136002,67.629333 100.414169,63.073616 101.369392,58.450764 
	C101.436386,58.126575 99.846596,57.460045 99.027214,56.952705 
z"/>
<path fill="#43CCC1" opacity="1.000000" stroke="none" 
	d="
M37.999962,84.536934 
	C39.356190,86.062897 40.557251,87.404976 41.223927,88.974098 
	C41.709171,90.116203 41.488811,91.558113 41.564568,93.149040 
	C40.639416,93.198990 39.178055,93.238106 38.910469,92.692146 
	C35.664631,86.069565 35.710293,86.048729 28.369629,85.743469 
	C28.043818,85.729919 27.721176,85.640160 26.862061,85.496330 
	C27.818718,84.668007 28.734287,84.178703 29.176853,83.415230 
	C29.729658,82.461563 29.893188,81.282242 29.329897,80.453835 
	C28.133032,76.262970 26.936169,72.072113 25.656075,67.454262 
	C26.446718,67.371315 27.893263,67.508125 28.104530,68.091934 
	C29.913240,73.090141 31.498234,78.169312 33.354942,83.851067 
	C34.454578,84.005722 36.035202,84.228027 37.999962,84.536934 
z"/>
<path fill="#84D0CB" opacity="1.000000" stroke="none" 
	d="
M34.095367,40.345306 
	C33.097485,40.642006 32.310211,40.687771 31.303543,40.534077 
	C33.183311,38.900791 35.546764,37.727409 37.297829,35.950542 
	C38.693317,34.534492 39.159874,32.248333 40.375893,30.596598 
	C41.465824,29.116131 42.826447,27.219313 44.398270,26.825377 
	C49.003807,25.671124 53.774170,25.174561 58.809219,24.577557 
	C55.506695,25.710833 51.870491,26.670897 48.245884,27.672901 
	C47.182037,27.966995 45.405300,28.157312 45.221256,28.773390 
	C43.514393,34.486916 38.518421,36.891857 34.095367,40.345306 
z"/>
<path fill="#13AA9F" opacity="1.000000" stroke="none" 
	d="
M28.187744,40.399658 
	C29.129244,42.261204 29.684128,44.000862 30.347876,46.081829 
	C29.707584,48.367756 28.806915,51.583267 27.582642,54.861069 
	C26.706524,52.632069 26.154009,50.340778 25.549932,47.835663 
	C23.124483,47.624722 20.628084,47.407612 18.131687,47.190502 
	C18.137478,46.783035 18.143267,46.375568 18.149055,45.968105 
	C20.167818,45.661217 22.186581,45.354328 23.338434,45.179226 
	C25.142021,43.198318 26.471577,41.738045 28.187744,40.399658 
z"/>
<path fill="#76356E" opacity="1.000000" stroke="none" 
	d="
M97.895027,79.396484 
	C99.208908,78.802917 100.522789,78.209343 101.969116,77.260117 
	C104.230370,77.493980 106.359169,78.083511 108.487968,78.673042 
	C108.539154,79.035103 108.590332,79.397156 108.641510,79.759216 
	C105.976532,80.351570 103.311562,80.943924 99.690376,81.748817 
	C101.636757,83.492325 102.645592,84.396011 104.866974,86.385849 
	C100.759590,86.385849 97.884453,86.385849 94.660904,85.870300 
	C94.312492,85.354744 94.519684,84.904190 94.905914,84.989731 
	C100.292229,85.076454 95.970078,80.804787 97.895027,79.396484 
z"/>
<path fill="#8C4481" opacity="1.000000" stroke="none" 
	d="
M90.402069,32.471931 
	C87.744926,31.778543 85.100311,30.685415 82.237785,29.332260 
	C88.238068,29.072231 94.456268,29.072231 100.674469,29.072231 
	C100.689514,29.416313 100.704552,29.760397 100.719597,30.104479 
	C97.284599,30.760384 93.849609,31.416288 90.402069,32.471931 
z"/>
<path fill="#C791C2" opacity="1.000000" stroke="none" 
	d="
M75.193542,96.295334 
	C75.523598,95.657806 76.163139,95.163345 77.010147,94.508484 
	C76.191185,94.021149 75.404732,93.553169 73.951904,92.688652 
	C78.245255,91.351059 81.776939,90.250763 85.820114,89.222748 
	C86.897499,89.520500 87.463394,89.745972 88.029282,89.971451 
	C83.853859,92.127098 79.678436,94.282761 75.193542,96.295334 
z"/>
<path fill="#43CCC1" opacity="1.000000" stroke="none" 
	d="
M43.457527,94.012802 
	C48.636227,94.376205 54.088737,94.971367 59.850487,95.801003 
	C60.159725,96.035477 60.109230,96.335884 60.109230,96.335884 
	C54.649933,95.638779 49.190636,94.941666 43.457527,94.012802 
z"/>
<path fill="#D2F9F7" opacity="1.000000" stroke="none" 
	d="
M94.519684,84.904190 
	C94.519684,84.904190 94.312492,85.354744 94.307159,85.603844 
	C94.301834,85.852943 93.918243,85.832603 93.918243,85.832603 
	C93.918243,85.832603 93.543037,85.915329 93.370766,85.830185 
	C93.018494,85.598030 92.817291,85.490913 92.216682,85.085876 
	C90.174232,84.445107 88.509987,84.142136 87.058807,83.487923 
	C87.626053,81.641350 87.980217,80.146019 88.434082,78.619553 
	C88.533791,78.588425 88.694992,78.455536 89.020691,78.391373 
	C89.900055,77.517212 90.453712,76.707222 91.338310,75.969131 
	C92.074883,76.766533 92.480507,77.492027 92.720848,78.433975 
	C93.210266,80.735016 93.864975,82.819603 94.519684,84.904190 
z"/>
<path fill="#C3ADD6" opacity="1.000000" stroke="none" 
	d="
M86.845734,83.839172 
	C88.509987,84.142136 90.174232,84.445107 92.291962,85.302551 
	C92.745438,85.857033 93.118423,86.126900 93.118423,86.126900 
	C92.963272,86.211365 92.808121,86.295837 92.054031,86.259636 
	C90.992523,86.798019 90.529945,87.457077 90.067368,88.116135 
	C89.572624,88.684814 89.077888,89.253494 88.306221,89.896812 
	C87.463394,89.745972 86.897499,89.520500 86.156799,89.040375 
	C85.958794,87.612320 85.935600,86.438919 85.753540,84.883644 
	C86.011696,84.280907 86.428711,84.060043 86.845734,83.839172 
z"/>
<path fill="#6E3268" opacity="1.000000" stroke="none" 
	d="
M100.964966,44.951530 
	C100.052895,44.439373 99.606903,43.918941 99.080696,43.148674 
	C101.855820,42.617374 104.711151,42.335907 107.566490,42.054440 
	C107.654694,42.810272 107.742905,43.566105 107.831108,44.321941 
	C105.697754,44.529045 103.564400,44.736149 100.964966,44.951530 
z"/>
<path fill="#6E3268" opacity="1.000000" stroke="none" 
	d="
M95.090851,42.425377 
	C95.036324,42.953079 95.061501,43.167831 95.009003,43.697762 
	C93.922081,43.234955 92.912827,42.456970 91.952881,41.339897 
	C92.002182,41.000805 91.985344,40.954994 91.985352,40.954994 
	C92.371422,39.859898 92.757492,38.764801 93.078400,37.345886 
	C93.013229,37.022064 93.040482,37.044479 93.288620,36.944954 
	C93.959915,36.540043 94.383072,36.234657 95.132416,35.859360 
	C96.061378,35.499428 96.664139,35.209415 97.266907,34.919403 
	C96.568123,37.317081 95.869339,39.714756 95.090851,42.425377 
z"/>
<path fill="#8C4481" opacity="1.000000" stroke="none" 
	d="
M80.009766,28.425674 
	C76.858749,27.524330 73.666679,26.283571 70.147919,24.822794 
	C73.819160,23.971130 77.467468,24.357975 80.009766,28.425674 
z"/>
<path fill="#C791C2" opacity="1.000000" stroke="none" 
	d="
M60.494102,96.455933 
	C60.109230,96.335884 60.159725,96.035477 60.214264,95.892426 
	C62.934002,95.921272 65.599205,96.093163 68.550858,96.510551 
	C66.184532,96.696022 63.531754,96.636009 60.494102,96.455933 
z"/>
<path fill="#8C4481" opacity="1.000000" stroke="none" 
	d="
M97.097023,34.572433 
	C96.664139,35.209415 96.061378,35.499428 95.078964,35.572197 
	C94.130707,35.316711 93.562096,35.278473 92.760506,35.140347 
	C92.363464,35.000011 92.199387,34.959560 92.035316,34.919109 
	C91.907036,34.591900 91.778748,34.264690 91.636475,33.673241 
	C93.390701,33.681152 95.158920,33.953308 97.097023,34.572433 
z"/>
<path fill="#76356E" opacity="1.000000" stroke="none" 
	d="
M101.550797,75.846458 
	C101.295403,75.513062 101.027199,74.732094 100.974030,73.800171 
	C101.305374,74.232445 101.421677,74.815666 101.550797,75.846458 
z"/>
<path fill="#C791C2" opacity="1.000000" stroke="none" 
	d="
M90.340363,88.011826 
	C90.529945,87.457077 90.992523,86.798019 91.796112,86.198868 
	C91.629196,86.808350 91.121277,87.357933 90.340363,88.011826 
z"/>
<path fill="#C791C2" opacity="1.000000" stroke="none" 
	d="
M71.219688,96.786972 
	C71.531876,96.428368 72.152054,96.220726 73.086853,96.164719 
	C72.776878,96.523544 72.152275,96.730736 71.219688,96.786972 
z"/>
<path fill="#76356E" opacity="1.000000" stroke="none" 
	d="
M93.123550,86.101143 
	C93.118423,86.126900 92.745438,85.857033 92.670158,85.640358 
	C92.817291,85.490913 93.018494,85.598030 93.193550,85.918625 
	C93.188606,86.092216 93.128670,86.075386 93.123550,86.101143 
z"/>
<path fill="#04111B" opacity="1.000000" stroke="none" 
	d="
M70.176834,90.014328 
	C69.634911,90.067352 69.092995,90.120369 67.796158,90.184219 
	C65.736404,90.373596 64.431564,90.552132 63.126724,90.730682 
	C62.003185,90.521996 60.879646,90.313309 59.085442,89.849251 
	C53.818123,87.768158 49.221470,85.942444 44.509552,83.741447 
	C41.897537,77.808266 39.383839,72.257858 36.920326,66.685265 
	C36.498413,65.730873 35.810692,64.538925 36.060638,63.699306 
	C37.899075,57.523727 39.748802,51.359417 40.646049,44.595703 
	C38.455776,42.510086 39.281494,41.709709 41.307838,40.787796 
	C44.055618,39.537663 46.639111,37.926434 49.293072,36.470089 
	C49.625397,36.400627 49.957718,36.331165 50.809265,36.381096 
	C54.544109,34.571285 57.759727,32.642078 60.975349,30.712873 
	C62.728230,30.652546 64.481110,30.592216 66.921402,30.840511 
	C71.054970,32.068512 74.501114,32.987888 77.947266,33.907265 
	C78.661087,33.979584 79.374916,34.051899 80.549728,34.483101 
	C81.221581,36.462307 82.140564,38.457008 81.517105,39.636204 
	C79.187096,44.043133 81.830093,44.134399 84.919487,44.135979 
	C85.321510,44.193691 85.723526,44.251400 86.575760,44.684792 
	C91.849205,53.455822 93.959648,62.029133 89.560822,71.407890 
	C88.605621,73.444458 88.949463,76.090309 88.694992,78.455536 
	C88.694992,78.455536 88.533791,78.588425 88.083603,78.438583 
	C82.729332,78.275055 85.540512,83.116982 83.477898,84.891571 
	C82.470428,85.093521 81.462967,85.295471 79.838326,85.588669 
	C76.206383,87.124718 73.191605,88.569527 70.176834,90.014328 
z"/>
<path fill="#F2EEF7" opacity="1.000000" stroke="none" 
	d="
M92.886139,78.217529 
	C92.480507,77.492027 92.074883,76.766533 91.189842,75.612900 
	C91.982697,72.103722 93.254959,69.022682 94.671387,65.777557 
	C94.956367,65.339211 94.991425,65.051964 94.809242,64.416428 
	C95.067757,61.757423 95.437752,59.433731 95.807747,57.110039 
	C96.612701,57.070866 97.417656,57.031696 98.624908,56.972614 
	C99.846596,57.460045 101.436386,58.126575 101.369392,58.450764 
	C100.414169,63.073616 99.136002,67.629333 98.162560,72.249031 
	C97.814079,73.902824 98.071274,75.684250 97.552795,77.738800 
	C95.664421,78.119293 94.275284,78.168419 92.886139,78.217529 
z"/>
<path fill="#24B3A8" opacity="1.000000" stroke="none" 
	d="
M95.466011,56.971756 
	C95.437752,59.433731 95.067757,61.757423 94.643341,64.575768 
	C94.404434,65.349335 94.383858,65.639748 94.527214,65.941643 
	C93.254959,69.022682 91.982697,72.103722 90.858902,75.540993 
	C90.453712,76.707222 89.900055,77.517212 89.020691,78.391373 
	C88.949463,76.090309 88.605621,73.444458 89.560822,71.407890 
	C93.959648,62.029133 91.849205,53.455822 86.875183,44.740788 
	C88.144295,45.433472 90.070702,46.147385 90.879433,47.519875 
	C92.601959,50.443165 93.744217,53.708382 95.466011,56.971756 
z"/>
<path fill="#24B3A8" opacity="1.000000" stroke="none" 
	d="
M84.756332,43.852184 
	C81.830093,44.134399 79.187096,44.043133 81.517105,39.636204 
	C82.140564,38.457008 81.221581,36.462307 80.906387,34.522758 
	C86.916992,33.752514 83.227211,38.223190 83.927971,40.476448 
	C84.239777,41.479084 84.376816,42.536072 84.756332,43.852184 
z"/>
<path fill="#B05FA0" opacity="1.000000" stroke="none" 
	d="
M48.922054,36.363071 
	C46.639111,37.926434 44.055618,39.537663 41.307838,40.787796 
	C39.281494,41.709709 38.455776,42.510086 40.282166,44.601898 
	C39.092388,44.965813 38.119198,44.933933 37.146011,44.902054 
	C36.610882,44.692783 36.075752,44.483513 35.243813,44.269390 
	C38.032021,39.132496 43.567196,38.162552 48.922054,36.363071 
z"/>
<path fill="#B05FA0" opacity="1.000000" stroke="none" 
	d="
M60.706692,30.528465 
	C57.759727,32.642078 54.544109,34.571285 51.054321,36.311798 
	C51.983456,30.827662 56.640800,31.304562 60.706692,30.528465 
z"/>
<path fill="#24B3A8" opacity="1.000000" stroke="none" 
	d="
M77.725723,33.644753 
	C74.501114,32.987888 71.054970,32.068512 67.357941,30.901932 
	C70.572777,31.563898 74.038483,32.473068 77.725723,33.644753 
z"/>
<path fill="#F2EEF7" opacity="1.000000" stroke="none" 
	d="
M91.978844,40.993645 
	C91.240440,40.807549 90.525368,40.628613 89.810303,40.449677 
	C89.926346,40.177948 90.042397,39.906216 90.158440,39.634487 
	C90.736412,39.884426 91.314384,40.134369 91.938850,40.669655 
	C91.985344,40.954994 92.002182,41.000805 91.978844,40.993645 
z"/>
<path fill="#F2EEF7" opacity="1.000000" stroke="none" 
	d="
M92.056023,35.228268 
	C92.199387,34.959560 92.363464,35.000011 92.764214,35.441189 
	C93.014091,36.242771 93.027283,36.643623 93.040482,37.044479 
	C93.040482,37.044479 93.013229,37.022064 93.026276,37.035004 
	C92.718452,36.544437 92.397591,36.040932 92.056023,35.228268 
z"/>
<path fill="#F2EEF7" opacity="1.000000" stroke="none" 
	d="
M90.530220,42.481613 
	C90.549461,42.519169 90.510979,42.444057 90.530220,42.481613 
z"/>
<path fill="#C652AA" opacity="1.000000" stroke="none" 
	d="
M37.086838,45.254349 
	C38.119198,44.933933 39.092388,44.965813 40.429459,44.991493 
	C39.748802,51.359417 37.899075,57.523727 36.060638,63.699306 
	C35.810692,64.538925 36.498413,65.730873 36.920326,66.685265 
	C39.383839,72.257858 41.897537,77.808266 44.166786,83.742752 
	C43.258865,84.137337 42.578445,84.155350 41.898029,84.173355 
	C41.898029,84.173355 41.859314,84.152885 41.909340,83.742195 
	C39.627415,77.908646 37.352627,72.459564 34.891624,67.095917 
	C34.581730,66.420509 33.291981,66.194687 32.456223,65.760567 
	C32.667648,64.744736 32.879074,63.728905 33.607613,62.302303 
	C34.098427,60.224136 34.072124,58.556736 34.045822,56.889339 
	C34.037613,56.499584 34.029404,56.109825 34.352772,55.376945 
	C37.169746,53.861561 37.718895,52.512573 35.064293,50.871162 
	C35.064293,50.871162 35.066875,50.554722 35.323448,50.263714 
	C35.669346,49.620525 35.758675,49.268345 35.848000,48.916164 
	C36.241222,47.812992 36.634445,46.709820 37.086838,45.254349 
z"/>
<path fill="#E279C8" opacity="1.000000" stroke="none" 
	d="
M32.395317,66.130371 
	C33.291981,66.194687 34.581730,66.420509 34.891624,67.095917 
	C37.352627,72.459564 39.627415,77.908646 41.890385,83.731232 
	C41.182301,84.027763 40.543201,83.924561 39.580399,83.780731 
	C37.190189,78.587303 35.123917,73.434418 33.056870,68.281837 
	C32.818260,67.687065 32.575336,67.094017 32.395317,66.130371 
z"/>
<path fill="#E279C8" opacity="1.000000" stroke="none" 
	d="
M33.776543,57.179153 
	C34.072124,58.556736 34.098427,60.224136 33.828133,62.042553 
	C33.523441,60.618706 33.515354,59.043839 33.776543,57.179153 
z"/>
<path fill="#FBD9F2" opacity="1.000000" stroke="none" 
	d="
M34.798363,51.139267 
	C37.718895,52.512573 37.169746,53.861561 34.352783,55.084305 
	C34.191620,53.892315 34.362026,52.649841 34.798363,51.139267 
z"/>
<path fill="#FBD9F2" opacity="1.000000" stroke="none" 
	d="
M35.657051,49.097801 
	C35.758675,49.268345 35.669346,49.620525 35.318642,50.105560 
	C35.193542,49.918758 35.329819,49.599102 35.657051,49.097801 
z"/>
<path fill="#E279C8" opacity="1.000000" stroke="none" 
	d="
M41.972248,84.533127 
	C42.578445,84.155350 43.258865,84.137337 44.282051,84.118027 
	C49.221470,85.942444 53.818123,87.768158 58.655838,89.840179 
	C58.524002,90.162743 58.151100,90.238998 57.201004,90.203796 
	C56.425377,90.086143 56.226944,90.079948 56.028511,90.073746 
	C51.367832,88.346794 46.707150,86.619843 41.972248,84.533127 
z"/>
<path fill="#24B3A8" opacity="1.000000" stroke="none" 
	d="
M83.982979,84.949738 
	C85.540512,83.116982 82.729332,78.275055 87.983894,78.469711 
	C87.980217,80.146019 87.626053,81.641350 87.058807,83.487930 
	C86.428711,84.060043 86.011696,84.280907 85.543304,84.673965 
	C85.157318,84.900070 84.822685,84.953987 83.982979,84.949738 
z"/>
<path fill="#C3ADD6" opacity="1.000000" stroke="none" 
	d="
M70.387497,90.201538 
	C73.191605,88.569527 76.206383,87.124718 79.503082,85.778778 
	C76.722717,87.381348 73.660439,88.885048 70.387497,90.201538 
z"/>
<path fill="#C3ADD6" opacity="1.000000" stroke="none" 
	d="
M63.390266,90.906418 
	C64.431564,90.552132 65.736404,90.373596 67.411102,90.324738 
	C66.405235,90.663666 65.029526,90.872917 63.390266,90.906418 
z"/>
<path fill="#C3ADD6" opacity="1.000000" stroke="none" 
	d="
M56.140167,90.197174 
	C56.226944,90.079948 56.425377,90.086143 56.913620,90.164162 
	C56.886223,90.264191 56.569027,90.292397 56.140167,90.197174 
z"/>
<path fill="#C3ADD6" opacity="1.000000" stroke="none" 
	d="
M92.720848,78.433975 
	C94.275284,78.168419 95.664421,78.119293 97.459953,78.101532 
	C97.880867,78.342171 97.895393,78.551460 97.902473,79.078613 
	C95.970078,80.804787 100.292229,85.076454 94.905914,84.989731 
	C93.864975,82.819603 93.210266,80.735016 92.720848,78.433975 
z"/>
<path fill="#EFECF4" opacity="1.000000" stroke="none" 
	d="
M93.288612,36.944954 
	C93.027283,36.643623 93.014091,36.242771 92.997185,35.541073 
	C93.562096,35.278473 94.130707,35.316711 94.752777,35.642113 
	C94.383072,36.234657 93.959915,36.540043 93.288612,36.944954 
z"/>
<path fill="#D2F9F7" opacity="1.000000" stroke="none" 
	d="
M94.671387,65.777557 
	C94.383858,65.639748 94.404434,65.349335 94.754822,64.911079 
	C94.991425,65.051964 94.956367,65.339211 94.671387,65.777557 
z"/>
</svg>