<svg version="1.1" id="Layer_1" xmlns="http://www.w3.org/2000/svg" xmlns:xlink="http://www.w3.org/1999/xlink" x="0px" y="0px"
	 width="100%" viewBox="0 0 471 123" enable-background="new 0 0 471 123" xml:space="preserve">
<path fill="#010F17" opacity="1.000000" stroke="none" 
	d="
M345.000000,124.000000 
	C230.048187,124.000000 115.596382,124.000000 1.072284,124.000000 
	C1.072284,83.065552 1.072284,42.130943 1.072284,1.098168 
	C157.999969,1.098168 314.999969,1.098168 471.973267,1.098168 
	C471.973267,42.070156 471.973267,83.035088 471.973267,124.000000 
	C429.797699,124.000000 387.648834,124.000000 345.000000,124.000000 
M105.000000,59.000000 
	C105.000000,59.000000 105.012024,59.011448 105.699226,58.944935 
	C106.998108,58.152203 108.296989,57.359470 109.253456,56.775719 
	C106.652176,54.522633 104.489708,52.649628 102.121567,50.045563 
	C101.584885,48.348858 101.048203,46.652149 101.431396,44.946289 
	C103.711700,44.776348 105.992012,44.606407 108.272316,44.436466 
	C108.212166,43.698696 108.152023,42.960926 108.091873,42.223156 
	C104.370552,42.436249 100.649223,42.649342 96.287582,42.854012 
	C95.863274,42.811909 95.438965,42.769806 95.173912,42.119625 
	C95.873703,39.717293 96.573494,37.314960 96.973778,34.237617 
	C95.032700,33.503872 93.091621,32.770130 91.150543,32.036388 
	C91.251549,31.751587 91.352554,31.466785 91.453552,31.181986 
	C94.676544,30.928268 97.899529,30.674553 101.122520,30.420837 
	C101.084328,29.723740 101.046143,29.026642 101.007950,28.329544 
	C94.960892,28.622328 88.913834,28.915110 82.215927,29.155367 
	C81.787994,29.076010 81.360069,28.996651 80.759644,28.276592 
	C77.928635,24.641586 74.164017,23.790653 68.961761,24.575054 
	C66.318130,24.586372 63.674503,24.597689 60.354698,24.260752 
	C56.136635,24.955250 51.937950,25.817963 47.696178,26.306690 
	C40.478588,27.138285 38.982811,28.488321 38.158913,35.476154 
	C34.772774,37.157867 31.494848,38.785835 27.502966,40.262718 
	C24.439966,42.571922 21.376965,44.881126 18.186419,47.286488 
	C20.279533,47.438923 22.951916,47.633541 25.430382,47.814037 
	C26.098921,50.070961 26.684069,52.046368 26.800838,54.581055 
	C25.619944,59.150089 24.439049,63.719128 23.113941,68.846138 
	C22.871580,68.882858 21.763170,69.104973 20.643875,69.203560 
	C19.720058,69.284935 18.783369,69.220184 18.178896,69.220184 
	C25.474970,68.022453 26.352377,68.686951 27.614382,76.560204 
	C27.710127,77.157516 27.895113,77.929031 28.319031,78.255905 
	C32.310154,81.333305 28.723700,83.269630 26.873724,85.994980 
	C29.240593,85.994980 31.335571,85.555923 33.122955,86.109680 
	C35.206451,86.755188 38.740299,88.376480 38.676868,89.388298 
	C38.220882,96.661964 44.350372,93.985611 47.340008,95.037895 
	C50.905773,96.292961 55.109055,95.736771 59.781055,96.171150 
	C60.550774,96.230728 61.320488,96.290306 62.564983,96.811279 
	C66.192871,96.644997 69.820763,96.478714 73.939140,96.396355 
	C74.280205,96.404404 74.598625,96.323418 75.538437,96.440605 
	C79.702515,94.285675 83.866600,92.130745 88.585648,89.826012 
	C89.079659,89.258102 89.573662,88.690193 90.614639,87.913658 
	C91.123512,87.364258 91.632393,86.814865 92.391693,86.244644 
	C92.391693,86.244644 92.469429,86.005684 92.519058,86.027626 
	C92.519058,86.027626 92.543579,85.979210 93.270927,86.152931 
	C93.763794,86.110291 94.256668,86.067650 95.424713,86.489441 
	C98.174942,86.489441 100.925179,86.489441 103.675407,86.489441 
	C103.795197,86.003120 103.914978,85.516792 104.034767,85.030472 
	C102.576012,84.433556 101.117256,83.836647 99.658501,83.239731 
	C100.056168,82.602081 100.453842,81.964432 100.851509,81.326782 
	C103.498070,80.890518 106.144638,80.454262 108.791199,80.017998 
	C108.803345,79.498123 108.815498,78.978249 108.827644,78.458382 
	C106.587204,77.938538 104.346764,77.418701 101.869392,76.562614 
	C101.869392,76.562614 101.564438,76.286575 101.631599,75.453163 
	C102.288864,72.570839 102.946136,69.688515 103.956970,66.100143 
	C103.997116,65.067940 104.037270,64.035736 104.453506,62.433826 
	C104.639748,61.292950 104.825989,60.152073 105.000000,59.000000 
M141.992874,78.454544 
	C143.821487,82.250748 146.793198,83.166260 150.702652,82.068100 
	C154.502121,81.000847 154.634796,78.056442 154.630692,74.941658 
	C154.615952,63.789593 154.611008,52.637470 154.631775,41.485424 
	C154.636841,38.760788 154.215744,36.356480 150.820831,36.189510 
	C147.162613,36.009594 147.014160,38.576870 147.020447,41.248566 
	C147.037689,48.572281 147.043015,55.896141 147.011490,63.219769 
	C147.003571,65.058609 146.839386,66.896767 146.747009,68.735245 
	C146.324402,68.779289 145.901794,68.823334 145.479202,68.867378 
	C144.875809,67.564125 144.209671,66.285851 143.679306,64.953529 
	C140.480026,56.916538 137.303696,48.870369 134.136948,40.820477 
	C132.723160,37.226631 130.011993,35.244255 126.350693,36.332779 
	C124.397507,36.913471 121.556824,39.172386 121.506035,40.750748 
	C121.099358,53.387268 121.137939,66.045212 121.443398,78.686844 
	C121.474777,79.985657 124.146309,81.220673 125.592751,82.485291 
	C126.640907,81.041443 128.527863,79.635254 128.594681,78.147354 
	C128.915375,71.004311 128.744400,63.839176 128.747437,56.681889 
	C128.748428,54.318443 128.747589,51.955002 128.747589,49.591557 
	C129.261887,49.515640 129.776199,49.439724 130.290497,49.363811 
	C134.089996,58.833572 137.889496,68.303329 141.992874,78.454544 
M446.871643,66.537498 
	C448.053864,61.861923 449.537384,57.232582 450.265503,52.487312 
	C450.544830,50.666698 449.100647,48.581627 448.441803,46.617069 
	C446.980469,47.992401 444.767273,49.112751 444.198212,50.790688 
	C442.460571,55.914154 441.355804,61.252247 439.637085,67.937012 
	C438.639526,65.328133 438.076385,64.175659 437.756409,62.959221 
	C436.741394,59.101044 436.106079,55.112591 434.735596,51.391205 
	C434.053467,49.539032 432.088165,48.159424 430.703308,46.566048 
	C429.312653,48.198143 427.572052,49.652802 426.629242,51.512009 
	C425.678162,53.387531 425.564758,55.676964 425.001373,57.762634 
	C424.210541,60.690331 423.342957,63.597309 422.508179,66.513145 
	C419.983337,60.917767 418.864380,55.440353 417.103546,50.177708 
	C416.618347,48.727501 414.218292,47.917980 412.696869,46.814476 
	C412.071320,48.595539 410.615845,50.557941 410.958740,52.127419 
	C412.803192,60.569035 414.869507,68.981682 417.390503,77.242203 
	C418.018890,79.301308 420.612091,80.760796 422.302216,82.495888 
	C423.816864,80.774567 425.919495,79.287888 426.720154,77.281624 
	C428.248779,73.451347 429.035492,69.324982 430.130127,65.321510 
	C430.565125,65.350647 431.000122,65.379791 431.435120,65.408928 
	C432.562408,69.678520 433.373566,74.071083 434.964081,78.160515 
	C435.653320,79.932571 437.810822,81.931694 439.562622,82.215530 
	C440.757172,82.409081 443.056702,80.066925 443.714264,78.404503 
	C445.110077,74.875641 445.756378,71.050308 446.871643,66.537498 
M174.657104,69.305168 
	C174.662292,65.313210 174.679443,61.321220 174.668747,57.329304 
	C174.660660,54.315037 175.967026,52.620541 179.150909,52.680927 
	C180.979828,52.715622 182.811401,52.730824 184.639297,52.674259 
	C188.600769,52.551670 189.072510,55.043392 189.252823,58.229927 
	C189.465408,61.987160 187.313431,61.986317 184.555786,62.158257 
	C182.049484,62.314529 177.741043,60.456467 177.599945,64.513184 
	C177.445404,68.957024 181.923828,67.249176 184.628540,67.652298 
	C184.791260,67.676544 184.960739,67.655373 185.127075,67.655510 
	C196.362122,67.664818 196.467392,67.554131 195.974335,56.248928 
	C195.733490,50.726574 193.258926,47.927940 187.935760,47.157600 
	C176.758179,45.540039 169.911591,47.666412 168.238983,53.292938 
	C168.050629,53.926586 167.932312,54.595688 167.889206,55.255390 
	C167.683899,58.397369 167.369263,61.541313 167.359116,64.685410 
	C167.306595,80.977982 170.137085,83.699768 186.246841,82.538536 
	C188.456772,82.379234 191.070496,81.645622 192.622681,80.223389 
	C194.272064,78.712105 195.273865,76.148949 195.762802,73.874107 
	C195.979980,72.863632 194.259384,70.435593 193.391510,70.422424 
	C192.014038,70.401527 189.646957,71.635040 189.381958,72.741180 
	C187.774811,79.449692 182.549301,76.806717 178.758331,76.860374 
	C174.621399,76.918915 174.625381,73.351707 174.657104,69.305168 
M209.237823,75.667702 
	C212.866699,83.712578 230.262634,85.779190 235.284225,78.609833 
	C236.430893,76.972740 236.845291,74.587379 236.959915,72.511253 
	C237.207489,68.027145 237.054535,63.520222 237.042831,59.022686 
	C237.025314,52.283440 235.188004,49.076794 230.483124,47.517113 
	C224.261246,45.454548 213.022324,47.080051 210.660294,50.709469 
	C209.640228,52.276890 209.144424,54.432716 209.094940,56.339024 
	C208.935135,62.494907 209.093231,68.659042 209.237823,75.667702 
M399.313660,78.579346 
	C399.823425,71.365341 400.576813,64.157768 400.767700,56.935337 
	C400.927277,50.897884 397.241577,47.405193 391.256470,47.094547 
	C378.135468,46.413525 373.357727,48.616486 372.392883,55.793488 
	C372.370758,55.957985 372.354828,56.124866 372.355133,56.290600 
	C372.364838,61.943733 371.764343,67.693382 372.633850,73.211334 
	C373.104401,76.197609 375.544525,80.423729 378.034637,81.245033 
	C384.946564,83.524757 392.370758,84.493713 399.313660,78.579346 
M276.833832,51.018154 
	C272.392090,46.920689 259.689911,44.962318 254.940781,48.437180 
	C252.618332,50.136463 250.555237,53.562210 250.268616,56.397945 
	C249.585983,63.152508 250.033020,70.020943 250.017349,76.843369 
	C250.011414,79.424217 249.998322,82.360313 253.424728,82.412247 
	C256.882751,82.464661 256.917145,79.542412 256.916168,76.949478 
	C256.913757,70.626137 256.753510,64.295288 257.035919,57.984440 
	C257.112030,56.283218 258.115997,53.756123 259.425751,53.123840 
	C265.984222,49.957745 271.152985,53.314362 271.163605,60.361790 
	C271.165100,61.360214 271.160400,62.358650 271.164612,63.357056 
	C271.186432,68.514984 270.988129,73.690170 271.386871,78.818886 
	C271.488647,80.127747 273.298798,81.775368 274.690643,82.306351 
	C275.351471,82.558449 277.854889,80.550125 277.854065,79.567184 
	C277.846497,70.292442 277.478516,61.017990 276.833832,51.018154 
M314.995056,56.500633 
	C314.996307,63.477348 315.026947,70.454247 314.983093,77.430679 
	C314.967468,79.919510 315.088531,82.349564 318.319366,82.456261 
	C321.894897,82.574326 322.019318,79.997551 322.007294,77.308083 
	C321.962799,67.341560 322.139740,57.371399 321.916931,47.409683 
	C321.832581,43.637459 323.112427,42.345623 326.797363,42.635689 
	C330.099030,42.895588 333.482849,43.006542 336.739288,42.543030 
	C338.214386,42.333065 339.468842,40.573086 340.823395,39.516270 
	C339.532776,38.379890 338.298706,36.348236 336.941711,36.262527 
	C331.150879,35.896793 325.322754,36.170048 319.510254,36.079914 
	C316.354065,36.030972 314.947388,37.403187 314.989532,40.551300 
	C315.056274,45.533688 314.999542,50.517727 314.995056,56.500633 
M359.661957,56.500607 
	C359.659668,51.020729 359.677032,45.540741 359.646790,40.061016 
	C359.631866,37.356445 359.142365,34.969677 355.598938,35.128242 
	C352.304321,35.275669 352.145172,37.593044 352.147369,40.066246 
	C352.158203,52.354496 352.161163,64.642769 352.146088,76.931007 
	C352.142609,79.774887 352.488403,82.941093 356.068817,82.314278 
	C357.534119,82.057747 359.363007,78.873398 359.494232,76.918137 
	C359.927032,70.470856 359.659576,63.976566 359.661957,56.500607 
M332.357269,63.620544 
	C333.564697,62.835838 335.696716,62.154804 335.798584,61.246136 
	C336.058685,58.926395 336.094910,56.017200 334.872040,54.309658 
	C334.151917,53.304146 329.675110,53.327282 328.986176,54.329788 
	C327.792969,56.065979 327.868530,58.968349 328.163177,61.286068 
	C328.278961,62.196510 330.414581,62.850136 332.357269,63.620544 
z"/>
<path fill="#00A702" opacity="1.000000" stroke="none" 
	d="
M141.840942,78.113815 
	C137.889496,68.303329 134.089996,58.833572 130.290497,49.363811 
	C129.776199,49.439724 129.261887,49.515640 128.747589,49.591557 
	C128.747589,51.955002 128.748428,54.318443 128.747437,56.681889 
	C128.744400,63.839176 128.915375,71.004311 128.594681,78.147354 
	C128.527863,79.635254 126.640907,81.041443 125.592751,82.485291 
	C124.146309,81.220673 121.474777,79.985657 121.443398,78.686844 
	C121.137939,66.045212 121.099358,53.387268 121.506035,40.750748 
	C121.556824,39.172386 124.397507,36.913471 126.350693,36.332779 
	C130.011993,35.244255 132.723160,37.226631 134.136948,40.820477 
	C137.303696,48.870369 140.480026,56.916538 143.679306,64.953529 
	C144.209671,66.285851 144.875809,67.564125 145.479202,68.867378 
	C145.901794,68.823334 146.324402,68.779289 146.747009,68.735245 
	C146.839386,66.896767 147.003571,65.058609 147.011490,63.219769 
	C147.043015,55.896141 147.037689,48.572281 147.020447,41.248566 
	C147.014160,38.576870 147.162613,36.009594 150.820831,36.189510 
	C154.215744,36.356480 154.636841,38.760788 154.631775,41.485424 
	C154.611008,52.637470 154.615952,63.789593 154.630692,74.941658 
	C154.634796,78.056442 154.502121,81.000847 150.702652,82.068100 
	C146.793198,83.166260 143.821487,82.250748 141.840942,78.113815 
z"/>
<path fill="#00A602" opacity="1.000000" stroke="none" 
	d="
M446.790802,66.942009 
	C445.756378,71.050308 445.110077,74.875641 443.714264,78.404503 
	C443.056702,80.066925 440.757172,82.409081 439.562622,82.215530 
	C437.810822,81.931694 435.653320,79.932571 434.964081,78.160515 
	C433.373566,74.071083 432.562408,69.678520 431.435120,65.408928 
	C431.000122,65.379791 430.565125,65.350647 430.130127,65.321510 
	C429.035492,69.324982 428.248779,73.451347 426.720154,77.281624 
	C425.919495,79.287888 423.816864,80.774567 422.302216,82.495880 
	C420.612091,80.760796 418.018890,79.301308 417.390503,77.242203 
	C414.869507,68.981682 412.803192,60.569035 410.958740,52.127419 
	C410.615845,50.557941 412.071320,48.595539 412.696869,46.814480 
	C414.218292,47.917980 416.618347,48.727501 417.103546,50.177708 
	C418.864380,55.440353 419.983337,60.917767 422.508179,66.513145 
	C423.342957,63.597309 424.210541,60.690331 425.001373,57.762634 
	C425.564758,55.676964 425.678162,53.387531 426.629242,51.512009 
	C427.572052,49.652802 429.312653,48.198143 430.703308,46.566048 
	C432.088165,48.159424 434.053467,49.539032 434.735596,51.391205 
	C436.106079,55.112591 436.741394,59.101044 437.756409,62.959221 
	C438.076385,64.175659 438.639526,65.328133 439.637085,67.937012 
	C441.355804,61.252247 442.460571,55.914154 444.198212,50.790688 
	C444.767273,49.112751 446.980469,47.992401 448.441833,46.617065 
	C449.100647,48.581627 450.544830,50.666698 450.265503,52.487312 
	C449.537384,57.232582 448.053864,61.861923 446.790802,66.942009 
z"/>
<path fill="#00A502" opacity="1.000000" stroke="none" 
	d="
M174.657013,69.778076 
	C174.625381,73.351707 174.621399,76.918915 178.758331,76.860374 
	C182.549301,76.806717 187.774811,79.449692 189.381958,72.741180 
	C189.646957,71.635040 192.014038,70.401527 193.391510,70.422424 
	C194.259384,70.435593 195.979980,72.863632 195.762802,73.874107 
	C195.273865,76.148949 194.272064,78.712105 192.622681,80.223389 
	C191.070496,81.645622 188.456772,82.379234 186.246841,82.538536 
	C170.137085,83.699768 167.306595,80.977982 167.359116,64.685410 
	C167.369263,61.541313 167.683899,58.397369 167.889206,55.255390 
	C167.932312,54.595688 168.050629,53.926586 168.238983,53.292938 
	C169.911591,47.666412 176.758179,45.540039 187.935760,47.157600 
	C193.258926,47.927940 195.733490,50.726574 195.974335,56.248928 
	C196.467392,67.554131 196.362122,67.664818 185.127075,67.655510 
	C184.960739,67.655373 184.791260,67.676544 184.628540,67.652298 
	C181.923828,67.249176 177.445404,68.957024 177.599945,64.513184 
	C177.741043,60.456467 182.049484,62.314529 184.555786,62.158257 
	C187.313431,61.986317 189.465408,61.987160 189.252823,58.229927 
	C189.072510,55.043392 188.600769,52.551670 184.639297,52.674259 
	C182.811401,52.730824 180.979828,52.715622 179.150909,52.680927 
	C175.967026,52.620541 174.660660,54.315037 174.668747,57.329304 
	C174.679443,61.321220 174.662292,65.313210 174.657013,69.778076 
z"/>
<path fill="#00A302" opacity="1.000000" stroke="none" 
	d="
M209.183319,75.243851 
	C209.093231,68.659042 208.935135,62.494907 209.094940,56.339024 
	C209.144424,54.432716 209.640228,52.276890 210.660294,50.709469 
	C213.022324,47.080051 224.261246,45.454548 230.483124,47.517113 
	C235.188004,49.076794 237.025314,52.283440 237.042831,59.022686 
	C237.054535,63.520222 237.207489,68.027145 236.959915,72.511253 
	C236.845291,74.587379 236.430893,76.972740 235.284225,78.609833 
	C230.262634,85.779190 212.866699,83.712578 209.183319,75.243851 
M215.862076,73.005867 
	C217.574661,76.907631 221.054886,78.155373 226.557083,76.973412 
	C230.055664,76.221855 230.178223,73.644501 230.150940,70.856194 
	C230.107147,66.378029 230.047211,61.896912 230.161697,57.421329 
	C230.249069,54.005611 228.678986,52.547626 225.364090,52.672035 
	C223.873383,52.727974 222.374435,52.752296 220.886765,52.663982 
	C217.310059,52.451637 215.706451,54.051579 215.790909,57.660389 
	C215.903442,62.468094 215.822052,67.280342 215.862076,73.005867 
z"/>
<path fill="#00A302" opacity="1.000000" stroke="none" 
	d="
M399.065674,78.878899 
	C392.370758,84.493713 384.946564,83.524757 378.034637,81.245033 
	C375.544525,80.423729 373.104401,76.197609 372.633850,73.211334 
	C371.764343,67.693382 372.364838,61.943733 372.355133,56.290600 
	C372.354828,56.124866 372.370758,55.957985 372.392883,55.793488 
	C373.357727,48.616486 378.135468,46.413525 391.256470,47.094547 
	C397.241577,47.405193 400.927277,50.897884 400.767700,56.935337 
	C400.576813,64.157768 399.823425,71.365341 399.065674,78.878899 
M394.004425,57.878559 
	C393.388153,52.650928 392.252350,52.043976 385.335785,52.088264 
	C380.842560,52.117039 378.979645,54.149101 379.122131,58.500370 
	C379.225494,61.656933 379.136749,64.819672 379.139587,67.979652 
	C379.147400,76.725533 379.883667,77.316528 388.487549,77.126381 
	C392.592926,77.035660 394.144653,75.185661 394.031921,71.271194 
	C393.912292,67.116783 394.006378,62.956226 394.004425,57.878559 
z"/>
<path fill="#00A102" opacity="1.000000" stroke="none" 
	d="
M277.024170,51.380806 
	C277.478516,61.017990 277.846497,70.292442 277.854065,79.567184 
	C277.854889,80.550125 275.351471,82.558449 274.690643,82.306351 
	C273.298798,81.775368 271.488647,80.127747 271.386871,78.818886 
	C270.988129,73.690170 271.186432,68.514984 271.164612,63.357056 
	C271.160400,62.358650 271.165100,61.360214 271.163605,60.361790 
	C271.152985,53.314362 265.984222,49.957745 259.425751,53.123840 
	C258.115997,53.756123 257.112030,56.283218 257.035919,57.984440 
	C256.753510,64.295288 256.913757,70.626137 256.916168,76.949478 
	C256.917145,79.542412 256.882751,82.464661 253.424728,82.412247 
	C249.998322,82.360313 250.011414,79.424217 250.017349,76.843369 
	C250.033020,70.020943 249.585983,63.152508 250.268616,56.397945 
	C250.555237,53.562210 252.618332,50.136463 254.940781,48.437180 
	C259.689911,44.962318 272.392090,46.920689 277.024170,51.380806 
z"/>
<path fill="#00A302" opacity="1.000000" stroke="none" 
	d="
M314.995056,56.000851 
	C314.999542,50.517727 315.056274,45.533688 314.989532,40.551300 
	C314.947388,37.403187 316.354065,36.030972 319.510254,36.079914 
	C325.322754,36.170048 331.150879,35.896793 336.941711,36.262527 
	C338.298706,36.348236 339.532776,38.379890 340.823395,39.516273 
	C339.468842,40.573086 338.214386,42.333065 336.739288,42.543030 
	C333.482849,43.006542 330.099030,42.895588 326.797363,42.635689 
	C323.112427,42.345623 321.832581,43.637459 321.916931,47.409683 
	C322.139740,57.371399 321.962799,67.341560 322.007294,77.308083 
	C322.019318,79.997551 321.894897,82.574326 318.319366,82.456261 
	C315.088531,82.349564 314.967468,79.919510 314.983093,77.430679 
	C315.026947,70.454247 314.996307,63.477348 314.995056,56.000851 
z"/>
<path fill="#009E03" opacity="1.000000" stroke="none" 
	d="
M359.661499,57.000465 
	C359.659576,63.976566 359.927032,70.470856 359.494232,76.918137 
	C359.363007,78.873398 357.534119,82.057747 356.068817,82.314278 
	C352.488403,82.941093 352.142609,79.774887 352.146088,76.931007 
	C352.161163,64.642769 352.158203,52.354496 352.147369,40.066246 
	C352.145172,37.593044 352.304321,35.275669 355.598938,35.128242 
	C359.142365,34.969677 359.631866,37.356445 359.646790,40.061016 
	C359.677032,45.540741 359.659668,51.020729 359.661499,57.000465 
z"/>
<path fill="#F8EEF8" opacity="1.000000" stroke="none" 
	d="
M80.932137,28.917294 
	C81.360069,28.996651 81.787994,29.076010 82.737274,29.462414 
	C87.100716,31.822254 90.942825,33.875050 94.492477,36.048546 
	C93.259605,38.337337 92.319199,40.505421 90.970406,42.818607 
	C88.589943,42.857235 86.617859,42.750759 85.492844,42.690022 
	C85.680069,39.610405 86.249771,37.172359 85.720833,35.002079 
	C85.546791,34.287960 82.529366,34.266823 80.486404,33.995155 
	C79.505821,33.935844 78.850960,33.810184 78.060577,33.364746 
	C72.994057,30.324011 67.988251,27.991091 61.829887,30.011406 
	C61.305344,30.034338 61.095757,30.048391 60.502853,29.974733 
	C55.987389,30.423487 52.093170,31.316839 50.543324,36.169746 
	C49.952908,36.308987 49.614040,36.382324 48.905708,36.345459 
	C44.001175,38.421486 39.466110,40.607712 34.751259,42.699493 
	C34.346771,43.068130 34.122070,43.531208 33.619698,43.969860 
	C32.539120,44.259312 31.736217,44.573189 30.605965,44.845047 
	C29.584948,43.582607 28.891281,42.362190 28.609526,41.142708 
	C32.342461,39.753586 35.749840,38.532448 38.946152,36.898445 
	C40.427395,36.141212 41.858334,34.784603 42.677975,33.339954 
	C44.312229,30.459499 45.482525,27.759241 49.634518,27.437576 
	C53.483250,27.139408 57.235912,25.601185 61.030876,24.609007 
	C63.674503,24.597689 66.318130,24.586372 69.722557,24.819454 
	C73.966278,26.348333 77.449211,27.632812 80.932137,28.917294 
z"/>
<path fill="#4AD4C8" opacity="1.000000" stroke="none" 
	d="
M59.036160,95.965233 
	C55.109055,95.736771 50.905773,96.292961 47.340008,95.037895 
	C44.350372,93.985611 38.220882,96.661964 38.676868,89.388298 
	C38.740299,88.376480 35.206451,86.755188 33.122955,86.109680 
	C31.335571,85.555923 29.240593,85.994980 26.873724,85.994980 
	C28.723700,83.269630 32.310154,81.333305 28.319031,78.255905 
	C27.895113,77.929031 27.710127,77.157516 27.614382,76.560204 
	C26.352377,68.686951 25.474970,68.022453 18.178896,69.220184 
	C18.783369,69.220184 19.720058,69.284935 20.643875,69.203560 
	C21.763170,69.104973 22.871580,68.882858 23.113941,68.846138 
	C24.439049,63.719128 25.619944,59.150089 27.235655,54.349915 
	C27.670471,54.118774 28.068922,54.231216 28.034609,54.651695 
	C26.568132,65.146538 29.874144,74.341248 33.689404,83.856583 
	C35.010185,84.034569 36.784786,84.273720 38.603554,84.856041 
	C40.165047,87.512543 41.682369,89.825874 43.199692,92.139198 
	C45.208271,93.323059 48.186478,92.979668 51.043076,93.421875 
	C53.773251,93.844505 56.376896,95.084511 59.036160,95.965233 
z"/>
<path fill="#EBF7F8" opacity="1.000000" stroke="none" 
	d="
M59.408607,96.068192 
	C56.376896,95.084511 53.773251,93.844505 51.043076,93.421875 
	C48.186478,92.979668 45.208271,93.323059 43.199692,92.139198 
	C41.682369,89.825874 40.165047,87.512543 38.777603,84.661423 
	C39.023685,83.996613 39.139881,83.869598 39.555527,83.780975 
	C40.425629,84.015961 40.996284,84.212540 41.778122,84.706985 
	C46.666851,86.692970 51.344398,88.381073 56.134277,90.195374 
	C56.567566,90.291679 56.888519,90.261787 57.493820,90.272606 
	C58.147774,90.239647 58.517384,90.165985 59.317184,90.103119 
	C60.873070,90.322372 61.998760,90.530830 63.389183,90.914017 
	C65.033813,90.879570 66.413704,90.670387 68.173599,90.323036 
	C69.088203,90.132652 69.622795,90.080444 70.329369,90.214592 
	C71.865936,89.793999 73.230530,89.187050 75.031746,88.301575 
	C75.797272,87.918007 76.126175,87.812965 76.697220,87.842239 
	C77.898880,87.276352 78.858398,86.576149 80.232162,85.672592 
	C81.868584,85.233704 83.090775,84.998169 84.537697,84.975639 
	C85.169556,86.389374 85.576683,87.590118 85.646637,88.972046 
	C81.788635,90.231995 78.267822,91.310768 75.587418,92.132034 
	C75.287209,93.874031 75.090805,95.013718 74.894394,96.153397 
	C74.598625,96.323418 74.280205,96.404404 73.218979,96.201645 
	C69.029282,96.121262 65.559746,96.235580 62.090206,96.349892 
	C61.320488,96.290306 60.550774,96.230728 59.408607,96.068192 
z"/>
<path fill="#A0EDE7" opacity="1.000000" stroke="none" 
	d="
M80.812134,33.928802 
	C82.529366,34.266823 85.546791,34.287960 85.720833,35.002079 
	C86.249771,37.172359 85.680069,39.610405 85.492844,42.690022 
	C86.617859,42.750759 88.589943,42.857235 90.935486,42.873566 
	C91.308952,42.783421 91.175743,42.787640 91.082588,43.184052 
	C92.926468,47.809204 94.863510,52.037941 96.825829,56.667450 
	C95.695114,61.655998 94.443726,66.222687 93.422951,70.840355 
	C92.904137,73.187317 92.800568,75.626076 92.394730,78.311996 
	C92.367973,81.060165 92.455772,83.519691 92.543579,85.979210 
	C92.543579,85.979210 92.519058,86.027626 92.398483,85.638412 
	C90.013481,84.518089 87.749054,83.786980 85.580070,82.668976 
	C86.546471,80.574768 87.417435,78.867432 88.288399,77.160103 
	C89.141838,75.690239 89.192001,73.722832 89.949203,72.081627 
	C93.321823,64.771576 93.866798,57.552349 90.318024,50.107292 
	C88.939224,47.214676 88.056435,44.356728 84.083275,43.929176 
	C82.546997,43.763859 80.030502,43.020947 82.166641,39.875912 
	C82.945496,38.729210 81.333412,35.958565 80.812134,33.928802 
z"/>
<path fill="#D962BC" opacity="1.000000" stroke="none" 
	d="
M104.077423,63.003529 
	C104.037270,64.035736 103.997116,65.067940 103.491875,66.645142 
	C102.539337,70.222282 102.051888,73.254425 101.564438,76.286575 
	C101.564438,76.286575 101.869392,76.562614 101.856186,77.087128 
	C100.529709,78.203735 99.216431,78.795822 97.902832,79.073364 
	C97.898491,78.549149 97.894455,78.339485 97.980003,77.761719 
	C99.117401,70.808067 100.165199,64.222511 101.208046,57.668156 
	C100.510727,56.878887 99.678665,55.937111 98.968872,54.608490 
	C97.714676,50.822048 96.338219,47.422459 95.026245,43.701172 
	C95.065369,43.162220 95.040009,42.944962 95.014656,42.727699 
	C95.438965,42.769806 95.863274,42.811909 96.872971,43.019093 
	C98.476074,43.774597 99.493797,44.365021 100.511513,44.955444 
	C101.048203,46.652149 101.584885,48.348858 102.145355,50.785782 
	C103.116776,54.021149 104.064400,56.516296 105.012024,59.011448 
	C105.012024,59.011448 105.000000,59.000000 104.675285,59.065910 
	C104.259521,60.422386 104.168472,61.712959 104.077423,63.003529 
z"/>
<path fill="#84D0CB" opacity="1.000000" stroke="none" 
	d="
M60.692787,24.434879 
	C57.235912,25.601185 53.483250,27.139408 49.634518,27.437576 
	C45.482525,27.759241 44.312229,30.459499 42.677975,33.339954 
	C41.858334,34.784603 40.427395,36.141212 38.946152,36.898445 
	C35.749840,38.532448 32.342461,39.753586 28.607376,40.960510 
	C28.193316,40.777378 28.216923,40.413803 28.216923,40.413803 
	C31.494848,38.785835 34.772774,37.157867 38.158913,35.476154 
	C38.982811,28.488321 40.478588,27.138285 47.696178,26.306690 
	C51.937950,25.817963 56.136635,24.955250 60.692787,24.434879 
z"/>
<path fill="#009D03" opacity="1.000000" stroke="none" 
	d="
M331.993835,63.620628 
	C330.414581,62.850136 328.278961,62.196510 328.163177,61.286068 
	C327.868530,58.968349 327.792969,56.065979 328.986176,54.329788 
	C329.675110,53.327282 334.151917,53.304146 334.872040,54.309658 
	C336.094910,56.017200 336.058685,58.926395 335.798584,61.246136 
	C335.696716,62.154804 333.564697,62.835838 331.993835,63.620628 
z"/>
<path fill="#8C4481" opacity="1.000000" stroke="none" 
	d="
M94.784927,35.927849 
	C90.942825,33.875050 87.100716,31.822254 83.062698,29.488674 
	C88.913834,28.915110 94.960892,28.622328 101.007950,28.329544 
	C101.046143,29.026642 101.084328,29.723740 101.122520,30.420837 
	C97.899529,30.674553 94.676544,30.928268 91.453552,31.181986 
	C91.352554,31.466785 91.251549,31.751587 91.150543,32.036388 
	C93.091621,32.770130 95.032700,33.503872 96.807396,34.699879 
	C96.022316,35.417374 95.403625,35.672611 94.784927,35.927849 
z"/>
<path fill="#13AA9F" opacity="1.000000" stroke="none" 
	d="
M27.859943,40.338261 
	C28.216923,40.413803 28.193316,40.777378 28.195465,40.959572 
	C28.891281,42.362190 29.584948,43.582607 30.859951,45.011124 
	C30.317163,48.223217 29.193043,51.227215 28.068922,54.231216 
	C28.068922,54.231216 27.670471,54.118774 27.469845,54.070274 
	C26.684069,52.046368 26.098921,50.070961 25.430382,47.814037 
	C22.951916,47.633541 20.279533,47.438923 18.186419,47.286488 
	C21.376965,44.881126 24.439966,42.571922 27.859943,40.338261 
z"/>
<path fill="#76356E" opacity="1.000000" stroke="none" 
	d="
M97.903152,79.387917 
	C99.216431,78.795822 100.529709,78.203735 101.974655,77.255249 
	C104.346764,77.418701 106.587204,77.938538 108.827644,78.458382 
	C108.815498,78.978249 108.803345,79.498123 108.791199,80.017998 
	C106.144638,80.454262 103.498070,80.890518 100.851509,81.326782 
	C100.453842,81.964432 100.056168,82.602081 99.658501,83.239731 
	C101.117256,83.836647 102.576012,84.433556 104.034767,85.030472 
	C103.914978,85.516792 103.795197,86.003120 103.675407,86.489441 
	C100.925179,86.489441 98.174942,86.489441 95.349396,86.011063 
	C99.736519,85.018753 96.351807,81.147369 97.903152,79.387917 
z"/>
<path fill="#C791C2" opacity="1.000000" stroke="none" 
	d="
M75.216415,96.296997 
	C75.090805,95.013718 75.287209,93.874031 75.587418,92.132034 
	C78.267822,91.310768 81.788635,90.231995 85.819412,89.228668 
	C86.896477,89.528015 87.463585,89.751923 88.030685,89.975815 
	C83.866600,92.130745 79.702515,94.285675 75.216415,96.296997 
z"/>
<path fill="#C3ADD6" opacity="1.000000" stroke="none" 
	d="
M97.902832,79.073364 
	C96.351807,81.147369 99.736519,85.018753 95.011803,85.778847 
	C94.256668,86.067650 93.763794,86.110291 92.907249,86.066071 
	C92.455772,83.519691 92.367973,81.060165 92.852570,78.349411 
	C94.913452,78.108727 96.401932,78.119270 97.890411,78.129814 
	C97.894455,78.339485 97.898491,78.549149 97.902832,79.073364 
z"/>
<path fill="#6E3268" opacity="1.000000" stroke="none" 
	d="
M94.492477,36.048550 
	C95.403625,35.672611 96.022316,35.417374 96.957153,35.037384 
	C96.573494,37.314960 95.873703,39.717293 95.094284,42.423660 
	C95.040009,42.944962 95.065369,43.162220 94.687668,43.608418 
	C93.248322,43.487453 92.212029,43.137547 91.175743,42.787640 
	C91.175743,42.787640 91.308952,42.783421 91.343872,42.728462 
	C92.319199,40.505421 93.259605,38.337337 94.492477,36.048550 
z"/>
<path fill="#6E3268" opacity="1.000000" stroke="none" 
	d="
M100.971451,44.950867 
	C99.493797,44.365021 98.476074,43.774597 97.193130,43.023304 
	C100.649223,42.649342 104.370552,42.436249 108.091873,42.223156 
	C108.152023,42.960926 108.212166,43.698696 108.272316,44.436466 
	C105.992012,44.606407 103.711700,44.776348 100.971451,44.950867 
z"/>
<path fill="#C3ADD6" opacity="1.000000" stroke="none" 
	d="
M88.308167,89.900917 
	C87.463585,89.751923 86.896477,89.528015 86.156601,89.047485 
	C85.576683,87.590118 85.169556,86.389374 84.584991,84.715828 
	C84.766579,83.847305 85.125610,83.451584 85.484634,83.055862 
	C87.749054,83.786980 90.013481,84.518089 92.373665,85.627441 
	C92.469429,86.005684 92.391693,86.244644 91.924362,86.190910 
	C90.993912,86.798882 90.530785,87.460579 90.067665,88.122284 
	C89.573662,88.690193 89.079659,89.258102 88.308167,89.900917 
z"/>
<path fill="#8C4481" opacity="1.000000" stroke="none" 
	d="
M80.845886,28.596943 
	C77.449211,27.632812 73.966278,26.348333 70.160629,24.838993 
	C74.164017,23.790653 77.928635,24.641586 80.845886,28.596943 
z"/>
<path fill="#6E3268" opacity="1.000000" stroke="none" 
	d="
M105.355621,58.978191 
	C104.064400,56.516296 103.116776,54.021149 102.248199,51.151314 
	C104.489708,52.649628 106.652176,54.522633 109.253456,56.775719 
	C108.296989,57.359470 106.998108,58.152203 105.355621,58.978191 
z"/>
<path fill="#C791C2" opacity="1.000000" stroke="none" 
	d="
M62.327595,96.580582 
	C65.559746,96.235580 69.029282,96.121262 72.973732,96.159691 
	C69.820763,96.478714 66.192871,96.644997 62.327595,96.580582 
z"/>
<path fill="#76356E" opacity="1.000000" stroke="none" 
	d="
M101.598022,75.869873 
	C102.051888,73.254425 102.539337,70.222282 103.315094,66.998161 
	C102.946136,69.688515 102.288864,72.570839 101.598022,75.869873 
z"/>
<path fill="#6E3268" opacity="1.000000" stroke="none" 
	d="
M104.265472,62.718678 
	C104.168472,61.712959 104.259521,60.422386 104.681396,59.071507 
	C104.825989,60.152073 104.639748,61.292950 104.265472,62.718678 
z"/>
<path fill="#C791C2" opacity="1.000000" stroke="none" 
	d="
M90.341156,88.017975 
	C90.530785,87.460579 90.993912,86.798882 91.799149,86.201324 
	C91.632393,86.814865 91.123512,87.364258 90.341156,88.017975 
z"/>
<path fill="#011416" opacity="1.000000" stroke="none" 
	d="
M215.843018,72.548248 
	C215.822052,67.280342 215.903442,62.468094 215.790909,57.660389 
	C215.706451,54.051579 217.310059,52.451637 220.886765,52.663982 
	C222.374435,52.752296 223.873383,52.727974 225.364090,52.672035 
	C228.678986,52.547626 230.249069,54.005611 230.161697,57.421329 
	C230.047211,61.896912 230.107147,66.378029 230.150940,70.856194 
	C230.178223,73.644501 230.055664,76.221855 226.557083,76.973412 
	C221.054886,78.155373 217.574661,76.907631 215.843018,72.548248 
z"/>
<path fill="#011816" opacity="1.000000" stroke="none" 
	d="
M394.005768,58.338455 
	C394.006378,62.956226 393.912292,67.116783 394.031921,71.271194 
	C394.144653,75.185661 392.592926,77.035660 388.487549,77.126381 
	C379.883667,77.316528 379.147400,76.725533 379.139587,67.979652 
	C379.136749,64.819672 379.225494,61.656933 379.122131,58.500370 
	C378.979645,54.149101 380.842560,52.117039 385.335785,52.088264 
	C392.252350,52.043976 393.388153,52.650928 394.005768,58.338455 
z"/>
<path fill="#05141D" opacity="1.000000" stroke="none" 
	d="
M85.580070,82.668976 
	C85.125610,83.451584 84.766579,83.847305 84.360260,84.502831 
	C83.090775,84.998169 81.868584,85.233704 79.996521,85.563232 
	C78.382790,86.340790 77.418930,87.024361 76.455078,87.707932 
	C76.126175,87.812965 75.797272,87.918007 74.758591,88.207748 
	C72.751671,88.937721 71.454529,89.482979 70.157394,90.028236 
	C69.622795,90.080444 69.088203,90.132652 67.801926,90.193748 
	C65.741653,90.381508 64.433052,90.560394 63.124451,90.739288 
	C61.998760,90.530830 60.873070,90.322372 59.077927,89.855911 
	C53.822445,87.778336 49.236416,85.958763 44.530800,83.762344 
	C41.910015,77.824020 39.392616,72.269730 36.923168,66.694199 
	C36.500061,65.738907 35.791710,64.542519 36.046589,63.712975 
	C37.941757,57.544807 39.712448,51.354946 40.642990,44.593380 
	C38.469486,42.495331 39.307484,41.702534 41.325180,40.782207 
	C44.063316,39.533260 46.633152,37.915329 49.275173,36.455658 
	C49.614040,36.382324 49.952908,36.308987 50.811356,36.364868 
	C54.516018,34.350201 57.701092,32.206326 60.886169,30.062447 
	C61.095757,30.048391 61.305344,30.034338 62.137100,30.225954 
	C67.904884,31.515924 73.050491,32.600224 78.196098,33.684525 
	C78.850960,33.810184 79.505821,33.935844 80.486404,33.995155 
	C81.333412,35.958565 82.945496,38.729210 82.166641,39.875912 
	C80.030502,43.020947 82.546997,43.763859 84.083275,43.929176 
	C88.056435,44.356728 88.939224,47.214676 90.318024,50.107292 
	C93.866798,57.552349 93.321823,64.771576 89.949203,72.081627 
	C89.192001,73.722832 89.141838,75.690239 88.288399,77.160103 
	C87.417435,78.867432 86.546471,80.574768 85.580070,82.668976 
z"/>
<path fill="#EBF7F8" opacity="1.000000" stroke="none" 
	d="
M28.034609,54.651695 
	C29.193043,51.227215 30.317163,48.223217 31.187298,45.053139 
	C31.736217,44.573189 32.539120,44.259312 33.832008,43.998425 
	C34.321995,44.051414 34.746986,44.082314 35.045120,44.155594 
	C35.541508,44.279720 35.739765,44.330559 35.954376,44.724823 
	C36.007500,45.756306 36.044266,46.444366 36.053558,47.433044 
	C35.967422,48.131817 35.908764,48.529968 35.657833,49.104679 
	C35.330978,49.597736 35.196396,49.914234 35.066704,50.393494 
	C35.071594,50.556255 35.072304,50.881920 34.801933,51.144474 
	C34.362797,52.646992 34.194038,53.886959 34.024750,55.422516 
	C34.032253,56.111801 34.040283,56.505489 33.776211,57.185112 
	C33.513580,59.043846 33.523056,60.616653 33.309494,62.452179 
	C32.888504,63.731201 32.690552,64.747498 32.429245,66.125336 
	C33.316010,68.713120 34.314568,70.920204 35.205067,73.170059 
	C36.593914,76.678993 37.909466,80.216927 39.256073,83.742577 
	C39.139881,83.869598 39.023685,83.996613 38.733437,84.318253 
	C36.784786,84.273720 35.010185,84.034569 33.689404,83.856583 
	C29.874144,74.341248 26.568132,65.146538 28.034609,54.651695 
z"/>
<path fill="#AF60A0" opacity="1.000000" stroke="none" 
	d="
M35.938019,44.381393 
	C35.739765,44.330559 35.541508,44.279720 35.058048,43.828739 
	C34.825581,43.217049 34.878315,43.005493 34.931049,42.793938 
	C39.466110,40.607712 44.001175,38.421486 48.905708,36.345459 
	C46.633152,37.915329 44.063316,39.533260 41.325180,40.782207 
	C39.307484,41.702534 38.469486,42.495331 40.287033,44.600525 
	C39.125832,44.977875 38.173439,44.958271 37.044823,44.764053 
	C36.598469,44.340984 36.288277,44.271633 35.938019,44.381393 
z"/>
<path fill="#AF60A0" opacity="1.000000" stroke="none" 
	d="
M60.502853,29.974733 
	C57.701092,32.206326 54.516018,34.350201 51.062904,36.298958 
	C52.093170,31.316839 55.987389,30.423487 60.502853,29.974733 
z"/>
<path fill="#A0EDE7" opacity="1.000000" stroke="none" 
	d="
M78.060577,33.364746 
	C73.050491,32.600224 67.904884,31.515924 62.452061,30.217075 
	C67.988251,27.991091 72.994057,30.324011 78.060577,33.364746 
z"/>
<path fill="#EBDAF0" opacity="1.000000" stroke="none" 
	d="
M34.751259,42.699497 
	C34.878315,43.005493 34.825581,43.217049 34.759918,43.755455 
	C34.746986,44.082314 34.321995,44.051414 34.109680,44.022850 
	C34.122070,43.531208 34.346771,43.068130 34.751259,42.699497 
z"/>
<path fill="#E279C8" opacity="1.000000" stroke="none" 
	d="
M39.555527,83.780975 
	C37.909466,80.216927 36.593914,76.678993 35.205067,73.170059 
	C34.314568,70.920204 33.316010,68.713120 32.765438,66.179741 
	C36.181023,71.844360 39.197056,77.816109 42.050453,83.942032 
	C41.887814,84.096199 41.566940,84.409119 41.566940,84.409119 
	C40.996284,84.212540 40.425629,84.015961 39.555527,83.780975 
z"/>
<path fill="#E279C8" opacity="1.000000" stroke="none" 
	d="
M44.650383,84.139198 
	C49.236416,85.958763 53.822445,87.778336 58.647736,89.845108 
	C58.517384,90.165985 58.147774,90.239647 57.200745,90.200851 
	C56.422863,90.081993 56.222401,90.075584 56.021942,90.069183 
	C51.344398,88.381073 46.666851,86.692970 41.778122,84.706985 
	C41.566940,84.409119 41.887814,84.096199 42.348206,84.011719 
	C43.422527,83.997887 44.036457,84.068542 44.650383,84.139198 
z"/>
<path fill="#C3ADD6" opacity="1.000000" stroke="none" 
	d="
M76.697220,87.842239 
	C77.418930,87.024361 78.382790,86.340790 79.582283,85.766586 
	C78.858398,86.576149 77.898880,87.276352 76.697220,87.842239 
z"/>
<path fill="#C3ADD6" opacity="1.000000" stroke="none" 
	d="
M70.329369,90.214592 
	C71.454529,89.482979 72.751671,88.937721 74.321960,88.486282 
	C73.230530,89.187050 71.865936,89.793999 70.329369,90.214592 
z"/>
<path fill="#C3ADD6" opacity="1.000000" stroke="none" 
	d="
M63.389183,90.914017 
	C64.433052,90.560394 65.741653,90.381508 67.421921,90.331917 
	C66.413704,90.670387 65.033813,90.879570 63.389183,90.914017 
z"/>
<path fill="#C3ADD6" opacity="1.000000" stroke="none" 
	d="
M56.134277,90.195374 
	C56.222401,90.075584 56.422863,90.081993 56.916397,90.160149 
	C56.888519,90.261787 56.567566,90.291679 56.134277,90.195374 
z"/>
<path fill="#FCEDF9" opacity="1.000000" stroke="none" 
	d="
M97.980003,77.761719 
	C96.401932,78.119270 94.913452,78.108727 92.967133,78.060760 
	C92.800568,75.626076 92.904137,73.187317 93.422951,70.840355 
	C94.443726,66.222687 95.695114,61.655998 97.009018,56.402237 
	C97.726814,55.489281 98.286713,55.242310 98.846603,54.995338 
	C99.678665,55.937111 100.510727,56.878887 101.208046,57.668156 
	C100.165199,64.222511 99.117401,70.808067 97.980003,77.761719 
z"/>
<path fill="#F8EEF8" opacity="1.000000" stroke="none" 
	d="
M98.968872,54.608490 
	C98.286713,55.242310 97.726814,55.489281 96.983734,56.001465 
	C94.863510,52.037941 92.926468,47.809204 91.082588,43.184052 
	C92.212029,43.137547 93.248322,43.487453 94.623184,43.930115 
	C96.338219,47.422459 97.714676,50.822048 98.968872,54.608490 
z"/>
<path fill="#C652AA" opacity="1.000000" stroke="none" 
	d="
M44.530800,83.762344 
	C44.036457,84.068542 43.422527,83.997887 42.510849,83.857544 
	C39.197056,77.816109 36.181023,71.844360 32.828796,65.818207 
	C32.690552,64.747498 32.888504,63.731201 33.606613,62.303276 
	C34.100620,60.227497 34.074467,58.563339 34.048317,56.899181 
	C34.040283,56.505489 34.032253,56.111801 34.356178,55.374775 
	C37.162388,53.865482 37.733967,52.523373 35.072304,50.881920 
	C35.072304,50.881920 35.071594,50.556255 35.326309,50.264091 
	C35.670719,49.623989 35.760410,49.276058 35.850105,48.928123 
	C35.908764,48.529968 35.967422,48.131817 36.323036,47.251747 
	C36.820343,46.159439 37.020695,45.549049 37.221046,44.938660 
	C38.173439,44.958271 39.125832,44.977875 40.434185,44.990337 
	C39.712448,51.354946 37.941757,57.544807 36.046589,63.712975 
	C35.791710,64.542519 36.500061,65.738907 36.923168,66.694199 
	C39.392616,72.269730 41.910015,77.824020 44.530800,83.762344 
z"/>
<path fill="#E279C8" opacity="1.000000" stroke="none" 
	d="
M33.776207,57.185112 
	C34.074467,58.563339 34.100620,60.227497 33.829651,62.040558 
	C33.523056,60.616653 33.513580,59.043846 33.776207,57.185112 
z"/>
<path fill="#FBD9F2" opacity="1.000000" stroke="none" 
	d="
M34.801933,51.144474 
	C37.733967,52.523373 37.162388,53.865482 34.356705,55.079182 
	C34.194038,53.886959 34.362797,52.646992 34.801933,51.144474 
z"/>
<path fill="#EBDAF0" opacity="1.000000" stroke="none" 
	d="
M37.044823,44.764053 
	C37.020695,45.549049 36.820343,46.159439 36.350510,46.951126 
	C36.044266,46.444366 36.007500,45.756306 35.954376,44.724823 
	C36.288277,44.271633 36.598469,44.340984 37.044823,44.764053 
z"/>
<path fill="#FBD9F2" opacity="1.000000" stroke="none" 
	d="
M35.657837,49.104679 
	C35.760410,49.276058 35.670719,49.623989 35.321419,50.101330 
	C35.196396,49.914234 35.330978,49.597736 35.657837,49.104679 
z"/>
</svg>